<svg width="10" height="10" viewBox="0 0 10 10" fill="none" xmlns="http://www.w3.org/2000/svg">
<path d="M9.00016 5.66671H5.66683V9.00004C5.66683 9.36671 5.36683 9.66671 5.00016 9.66671C4.6335 9.66671 4.3335 9.36671 4.3335 9.00004V5.66671H1.00016C0.633496 5.66671 0.333496 5.36671 0.333496 5.00004C0.333496 4.63337 0.633496 4.33337 1.00016 4.33337H4.3335V1.00004C4.3335 0.633374 4.6335 0.333374 5.00016 0.333374C5.36683 0.333374 5.66683 0.633374 5.66683 1.00004V4.33337H9.00016C9.36683 4.33337 9.66683 4.63337 9.66683 5.00004C9.66683 5.36671 9.36683 5.66671 9.00016 5.66671Z" fill="white"/>
</svg>
