<svg width="10" height="12" viewBox="0 0 10 12" fill="none" xmlns="http://www.w3.org/2000/svg">
<path fill-rule="evenodd" clip-rule="evenodd" d="M7.33325 0.666667H8.99992C9.36659 0.666667 9.66659 0.966667 9.66659 1.33333C9.66659 1.7 9.36659 2 8.99992 2H0.999919C0.633252 2 0.333252 1.7 0.333252 1.33333C0.333252 0.966667 0.633252 0.666667 0.999919 0.666667H2.66659L3.13992 0.193333C3.25992 0.0733333 3.43325 0 3.60659 0H6.39325C6.56659 0 6.73992 0.0733333 6.85992 0.193333L7.33325 0.666667ZM2.33325 12C1.59992 12 0.999919 11.4 0.999919 10.6667V4C0.999919 3.26667 1.59992 2.66667 2.33325 2.66667H7.66659C8.39992 2.66667 8.99992 3.26667 8.99992 4V10.6667C8.99992 11.4 8.39992 12 7.66659 12H2.33325Z" fill="#9C9C9C"/>
</svg>
