<svg width="16" height="12" viewBox="0 0 16 12" fill="none" xmlns="http://www.w3.org/2000/svg">
<path fill-rule="evenodd" clip-rule="evenodd" d="M2.00008 0.0065918H14.0001C14.7334 0.0065918 15.3334 0.606592 15.3334 1.33993V10.6599C15.3334 11.3933 14.7334 11.9933 14.0001 11.9933H1.98675C1.26008 11.9933 0.666748 11.3999 0.666748 10.6733V8.66659C0.666748 8.29992 0.966748 7.99993 1.33341 7.99993C1.70008 7.99993 2.00008 8.29992 2.00008 8.66659V10.0133C2.00008 10.3799 2.30008 10.6799 2.66675 10.6799H13.3334C13.7001 10.6799 14.0001 10.3799 14.0001 10.0133V1.99326C14.0001 1.62659 13.7001 1.32659 13.3334 1.32659H2.66675C2.30008 1.32659 2.00008 1.62659 2.00008 1.99326V3.33326C2.00008 3.69993 1.70008 3.99993 1.33341 3.99993C0.966748 3.99993 0.666748 3.69993 0.666748 3.33326V1.33993C0.666748 0.606592 1.26675 0.0065918 2.00008 0.0065918ZM9.76008 6.23992L7.90008 8.09992C7.69342 8.30659 7.33342 8.15992 7.33342 7.85992V6.66658H1.33341C0.966748 6.66658 0.666748 6.36658 0.666748 5.99992C0.666748 5.63325 0.966748 5.33325 1.33341 5.33325H7.33342V4.13992C7.33342 3.83992 7.69342 3.69325 7.90008 3.90658L9.76008 5.76659C9.89342 5.89992 9.89342 6.10659 9.76008 6.23992Z" fill="#9C9C9C"/>
</svg>
