<svg width="660" height="414" viewBox="0 0 660 414" fill="none" xmlns="http://www.w3.org/2000/svg">
<path d="M620.711 348.588C620.622 349.452 620.511 350.326 620.379 351.211C620.165 352.656 619.895 354.135 619.569 355.649C619.466 356.119 619.363 356.589 619.243 357.067C618.311 360.926 617.118 364.718 615.673 368.414C615.522 368.804 615.37 369.195 615.211 369.588C613.962 372.706 612.485 375.964 610.779 379.363C610.603 379.708 610.426 380.058 610.246 380.398C609.958 380.959 609.662 381.525 609.359 382.095H534.839H527.111H327.476H319.813H299.634L202.995 382.066L68.8876 381.956H68.8463H51.245C51.245 381.956 50.0075 380.369 48.0708 377.376C40.1879 365.136 20.9407 329.37 29.2752 282.526C32.369 265.101 39.2866 246.14 52.0267 226.286C103.35 146.297 182.789 184.679 232.883 111.246C302.831 8.69398 416.547 6.12926 497.704 50.9737C517.527 61.9261 535.409 75.7061 550.234 91.5457C555.254 96.8954 559.951 102.541 564.3 108.454C579.356 128.922 589.508 151.957 592.895 176.246C593.456 180.273 593.828 184.332 594.012 188.424C594.099 190.356 594.141 192.3 594.138 194.257C594.138 195.305 594.123 196.353 594.093 197.401C594.043 199.34 593.948 201.285 593.808 203.237C593.728 204.341 593.634 205.452 593.524 206.569C593.337 208.508 593.101 210.453 592.816 212.403C592.651 213.562 592.468 214.722 592.266 215.882C591.931 217.821 591.55 219.766 591.123 221.716C590.895 222.766 590.651 223.816 590.391 224.866C590.273 225.357 590.149 225.843 590.023 226.332C589.644 227.815 589.3 229.272 588.992 230.702C588.698 232.081 588.434 233.433 588.2 234.757C587.851 236.755 587.573 238.699 587.365 240.59C587.243 241.657 587.144 242.705 587.07 243.736C586.922 245.736 586.849 247.682 586.843 249.57C586.843 250.7 586.865 251.811 586.909 252.902C586.996 254.906 587.159 256.851 587.398 258.738C587.542 259.917 587.716 261.077 587.92 262.215C588.273 264.223 588.704 266.168 589.211 268.051C589.493 269.119 589.799 270.17 590.129 271.203C590.763 273.207 591.467 275.151 592.241 277.036C592.336 277.27 592.432 277.502 592.531 277.734C592.69 278.121 592.855 278.504 593.02 278.887C593.099 279.067 593.179 279.247 593.258 279.425C593.422 279.796 593.588 280.162 593.759 280.528C595.217 283.704 596.836 286.738 598.531 289.684L599.101 290.663C600.782 293.536 602.531 296.329 604.273 299.09L604.865 300.026C606.27 302.249 607.666 304.454 609.017 306.671L610.063 308.407L610.296 308.794L610.638 309.376C611.203 310.342 611.753 311.308 612.288 312.274C613.35 314.191 614.351 316.133 615.283 318.109C615.339 318.227 615.392 318.345 615.446 318.465C615.617 318.832 615.782 319.198 615.945 319.569C616.193 320.13 616.436 320.695 616.669 321.262C617.453 323.162 618.15 325.1 618.752 327.095C619.099 328.249 619.409 329.422 619.684 330.614C619.794 331.092 619.891 331.575 619.996 332.063C620.403 334.073 620.691 336.105 620.858 338.149C620.92 338.896 620.967 339.65 620.996 340.414C621.1 343.142 621.005 345.874 620.711 348.588Z" fill="#E8F3FD"/>
<path d="M350.006 256.179L349.594 222.024H337.237V192.823L336.666 192.473H332.982V192.458H311.555V192.473H311.538V196.857H311.555V199.869H311.538V204.245H311.555V207.267H311.538V211.647H311.555V211.664L309.286 211.647V188.736H285.244V191.634V196.015V199.863V204.239V207.261V211.641V214.438V218.816V221.612V225.99V228.625V231.405V231.708H258.126V256.769H247.999V263.081H237.068V252.209H217.427V222.676H214.353V219.735H213.914V222.676H211.365H198.637V219.739H198.206V222.676H194.877V237.528L178.377 237.448V246.616H164.381V189.939H122.941V250.65H110.284V217.822H68.8276V381.956H68.8689L330.724 382.033H351.487L350.006 256.179Z" fill="#CFE3FC"/>
<path d="M68.8874 256.494V381.956H68.8461H51.2447C51.2447 381.956 50.0072 380.369 48.0706 377.375V256.494H68.8874Z" fill="#CFE3FC"/>
<path d="M164.388 189.939H133.605V199.546H164.388V189.939Z" fill="#EEF6FF"/>
<path d="M164.388 204.725H133.605V214.332H164.388V204.725Z" fill="#EEF6FF"/>
<path d="M164.388 219.82H133.605V229.426H164.388V219.82Z" fill="#EEF6FF"/>
<path d="M164.388 235.154H133.605V244.761H164.388V235.154Z" fill="#EEF6FF"/>
<path d="M164.388 249.95H133.605V259.557H164.388V249.95Z" fill="#EEF6FF"/>
<path d="M300.63 188.736H285.24V194.57H300.63V188.736Z" fill="#EEF6FF"/>
<path d="M300.63 197.716H285.24V203.549H300.63V197.716Z" fill="#EEF6FF"/>
<path d="M300.63 206.882H285.24V212.715H300.63V206.882Z" fill="#EEF6FF"/>
<path d="M300.63 216.195H285.24V222.028H300.63V216.195Z" fill="#EEF6FF"/>
<path d="M300.63 225.181H285.24V231.014H300.63V225.181Z" fill="#EEF6FF"/>
<path d="M300.63 235.071H285.24V240.905H300.63V235.071Z" fill="#EEF6FF"/>
<path d="M300.63 244.051H285.24V249.884H300.63V244.051Z" fill="#EEF6FF"/>
<path d="M300.63 253.217H285.24V259.05H300.63V253.217Z" fill="#EEF6FF"/>
<path d="M300.63 262.53H285.24V268.363H300.63V262.53Z" fill="#EEF6FF"/>
<path d="M300.63 271.516H285.24V277.349H300.63V271.516Z" fill="#EEF6FF"/>
<path d="M326.974 192.562H311.584V198.395H326.974V192.562Z" fill="#EEF6FF"/>
<path d="M326.974 201.541H311.584V207.375H326.974V201.541Z" fill="#EEF6FF"/>
<path d="M326.974 210.707H311.584V216.541H326.974V210.707Z" fill="#EEF6FF"/>
<path d="M326.974 220.02H311.584V225.853H326.974V220.02Z" fill="#EEF6FF"/>
<path d="M326.974 229.006H311.584V234.839H326.974V229.006Z" fill="#EEF6FF"/>
<path d="M326.974 238.375H311.584V244.208H326.974V238.375Z" fill="#EEF6FF"/>
<path d="M326.974 247.355H311.584V253.188H326.974V247.355Z" fill="#EEF6FF"/>
<path d="M326.974 256.521H311.584V262.354H326.974V256.521Z" fill="#EEF6FF"/>
<path d="M326.974 265.833H311.584V271.667H326.974V265.833Z" fill="#EEF6FF"/>
<path d="M326.974 274.819H311.584V280.653H326.974V274.819Z" fill="#EEF6FF"/>
<path d="M263.938 220.02H263.175V231.923H263.938V220.02Z" fill="#DFEBFA"/>
<path d="M277.229 209.799H276.041V232.85H277.229V209.799Z" fill="#DFEBFA"/>
<path d="M126.188 185.696H125.693V189.939H126.188V185.696Z" fill="#DFEBFA"/>
<path d="M136.68 185.696H136.185V189.939H136.68V185.696Z" fill="#DFEBFA"/>
<path d="M160.731 185.696H160.236V189.939H160.731V185.696Z" fill="#DFEBFA"/>
<path d="M288.003 185.46H287.622V188.736H288.003V185.46Z" fill="#DFEBFA"/>
<path d="M306.059 185.46H305.677V188.736H306.059V185.46Z" fill="#DFEBFA"/>
<path d="M151.328 185.696H150.833V189.939H151.328V185.696Z" fill="#DFEBFA"/>
<path d="M618.75 327.091C618.148 325.096 617.45 323.158 616.667 321.258C616.229 320.195 615.767 319.144 615.281 318.105C614.355 316.128 613.348 314.187 612.286 312.27C611.642 311.104 610.974 309.947 610.292 308.794L609.013 306.671C603.289 297.275 596.726 288.04 592.236 277.036C591.465 275.149 590.761 273.204 590.124 271.203C589.798 270.168 589.489 269.119 589.207 268.051C588.701 266.164 588.27 264.219 587.915 262.215C587.713 261.077 587.539 259.917 587.394 258.738C587.157 256.85 586.994 254.905 586.905 252.902C586.858 251.809 586.836 250.698 586.839 249.57C586.839 247.682 586.914 245.737 587.066 243.736C587.141 242.704 587.24 241.655 587.361 240.59C587.57 238.698 587.848 236.753 588.196 234.757C588.427 233.43 588.691 232.079 588.988 230.702C589.296 229.273 589.64 227.817 590.019 226.332C590.145 225.843 590.269 225.357 590.386 224.866C590.645 223.816 590.889 222.766 591.118 221.716C591.548 219.768 591.928 217.824 592.261 215.882C592.463 214.72 592.647 213.561 592.812 212.403L593.519 206.569C593.629 205.456 593.724 204.345 593.804 203.237C593.941 201.287 594.036 199.342 594.088 197.401C594.117 196.351 594.132 195.303 594.134 194.257C594.134 192.307 594.092 190.363 594.008 188.424H581.186V191.322H581.171V195.698H581.186V199.548H581.171V203.926H581.186V206.946H581.171V211.326H581.186V214.123H581.171V218.501H581.186V221.3H581.171V225.678H581.186V228.321H581.171V231.103H581.186V231.403H552.558V256.467H541.864V262.776H530.333V251.898H509.592V222.361H506.344V219.42H505.879V222.361H503.188H489.74V219.42H489.276V222.355H485.77V237.21L468.346 237.129V246.297H453.572V189.624H409.806V250.338H396.441V217.505H352.673V382.039H352.714L609.359 382.114C622.147 357.978 622.98 341.179 618.75 327.091Z" fill="#CFE3FC"/>
<path d="M352.715 382.039V256.181H352.673H350.004H330.732V382.033L351.496 382.039H352.673H352.715Z" fill="#DFEBFA"/>
<path d="M453.575 189.624H421.068V199.231H453.575V189.624Z" fill="#EEF6FF"/>
<path d="M453.575 204.41H421.068V214.017H453.575V204.41Z" fill="#EEF6FF"/>
<path d="M453.575 219.505H421.068V229.112H453.575V219.505Z" fill="#EEF6FF"/>
<path d="M453.575 234.839H421.068V244.446H453.575V234.839Z" fill="#EEF6FF"/>
<path d="M453.575 249.636H421.068V259.243H453.575V249.636Z" fill="#EEF6FF"/>
<path d="M594.136 194.257H581.194V188.424H594.01C594.097 190.361 594.139 192.306 594.136 194.257Z" fill="#EEF6FF"/>
<path d="M594.091 197.401C594.041 199.34 593.946 201.285 593.806 203.237H581.194V197.401H594.091Z" fill="#EEF6FF"/>
<path d="M592.814 212.403H581.194V206.569H593.521L592.814 212.403Z" fill="#EEF6FF"/>
<path d="M592.263 215.882C591.929 217.821 591.548 219.766 591.121 221.716H581.194V215.882H592.263Z" fill="#EEF6FF"/>
<path d="M590.388 224.866C590.271 225.357 590.147 225.843 590.021 226.332C589.642 227.815 589.298 229.272 588.99 230.702H581.196V224.866H590.388Z" fill="#EEF6FF"/>
<path d="M588.196 234.757C587.847 236.755 587.568 238.699 587.361 240.59H581.194V234.757H588.196Z" fill="#EEF6FF"/>
<path d="M587.066 243.736C586.917 245.736 586.842 247.68 586.839 249.57H581.194V243.736H587.066Z" fill="#EEF6FF"/>
<path d="M587.4 258.737H581.2V252.902H586.911C586.994 254.909 587.157 256.854 587.4 258.737Z" fill="#EEF6FF"/>
<path d="M589.207 268.05H581.194V262.215H587.916C588.269 264.223 588.699 266.168 589.207 268.05Z" fill="#EEF6FF"/>
<path d="M592.237 277.036H581.194V271.203H590.125C590.758 273.207 591.462 275.151 592.237 277.036Z" fill="#EEF6FF"/>
<path d="M609.013 306.67V308.794H610.292L609.013 306.67Z" fill="#EEF6FF"/>
<path d="M615.281 318.105H609.013V312.27H612.286C613.348 314.187 614.355 316.128 615.281 318.105Z" fill="#EEF6FF"/>
<path d="M618.75 327.091H609.013V321.264H616.667C617.451 323.158 618.148 325.096 618.75 327.091Z" fill="#EEF6FF"/>
<path d="M558.698 219.708H557.892V231.61H558.698V219.708Z" fill="#CFE3FC"/>
<path d="M572.733 209.486H571.479V232.538H572.733V209.486Z" fill="#CFE3FC"/>
<path d="M413.234 185.381H412.712V189.624H413.234V185.381Z" fill="#DFEBFA"/>
<path d="M424.312 185.381H423.79V189.624H424.312V185.381Z" fill="#DFEBFA"/>
<path d="M449.712 185.381H449.19V189.624H449.712V185.381Z" fill="#DFEBFA"/>
<path d="M584.112 185.147H583.708V188.424H584.112V185.147Z" fill="#CFE3FC"/>
<path d="M439.783 185.381H439.261V189.624H439.783V185.381Z" fill="#DFEBFA"/>
<path d="M202.996 381.994L68.8876 381.956H68.8464H51.245C51.245 381.956 50.0075 380.369 48.0708 377.375C40.1879 365.136 20.9407 329.37 29.2752 282.526C40.6809 281.046 57.5315 280.143 68.8464 285.273C87.3841 293.671 86.9098 315.749 105.844 314.686C124.777 313.622 154.582 318.842 153.636 339.273C152.699 359.489 201.133 358.385 202.996 381.994Z" fill="#A8D29F"/>
<path d="M592.527 277.734C592.686 278.121 592.851 278.504 593.016 278.887H299.634V277.734H592.527Z" fill="#90B9F7"/>
<path d="M300.739 277.717L300.729 277.734L300.098 278.887L299.634 279.731V277.734H299.624L299.634 277.717H300.739Z" fill="#B0D0FF"/>
<path d="M311.642 277.719L311.633 277.734L311 278.887L307.843 284.642L307.29 285.648L304.122 291.421L302.389 294.576L301.839 295.582L299.634 299.597V297.583L301.284 294.573L301.839 293.569L304.122 289.407L306.737 284.642L307.29 283.633L309.895 278.887L310.528 277.734L310.536 277.719H311.642Z" fill="#90B9F7"/>
<path d="M322.544 277.724L322.538 277.734L321.905 278.887L318.747 284.644V284.646L318.192 285.65L313.296 294.575L312.741 295.582L307.843 304.509L307.29 305.518L304.122 311.289L302.389 314.443L301.839 315.449L299.634 319.465V317.451L301.284 314.443L301.839 313.435L304.122 309.275L306.737 304.507L307.29 303.501L312.188 294.575L312.741 293.569L317.639 284.644L318.192 283.636L320.799 278.887L321.432 277.734L321.439 277.722L322.544 277.724Z" fill="#90B9F7"/>
<path d="M333.444 277.726L333.44 277.734L332.807 278.887L329.649 284.642L329.097 285.648L324.196 294.575L323.643 295.582L318.745 304.507L318.192 305.515L313.294 314.443L312.741 315.449L307.843 324.375L307.29 325.381L304.122 331.154L302.389 334.307L301.839 335.315L299.634 339.331V337.317L301.284 334.307L301.839 333.301L304.122 329.138L306.737 324.375L307.29 323.367L312.188 314.441L312.741 313.435L317.641 304.507L318.192 303.501L323.091 294.575L323.643 293.569L328.544 284.642L329.097 283.633L331.702 278.887L332.335 277.734L332.341 277.726H333.444Z" fill="#90B9F7"/>
<path d="M344.347 277.728L344.345 277.734L343.711 278.887L340.552 284.642L339.999 285.65L335.101 294.573L334.548 295.582L329.649 304.509L329.097 305.518L324.198 314.443L323.643 315.449L318.745 324.377L318.192 325.381L313.296 334.309L312.741 335.315L307.843 344.241L307.29 345.251L304.122 351.02L302.389 354.175L301.839 355.183L299.634 359.199V357.183L301.284 354.175L301.839 353.169L304.122 349.006L306.737 344.241L307.29 343.235L312.188 334.307L312.741 333.301L317.639 324.375L318.192 323.367L323.093 314.441L323.643 313.433L328.542 304.507L329.097 303.501L333.995 294.573L334.548 293.567L339.448 284.642L339.999 283.633L342.604 278.887L343.237 277.734L343.241 277.726L344.347 277.728Z" fill="#90B9F7"/>
<path d="M299.634 379.065L304.122 370.888L307.29 365.115L307.843 364.109L312.741 355.183L313.294 354.175L318.192 345.249L318.747 344.241L323.643 335.315L324.196 334.309L329.097 325.381L329.649 324.375L334.548 315.449L335.1 314.443L340.001 305.515L340.552 304.507L345.452 295.582L346.005 294.576L350.903 285.648L351.456 284.644L354.614 278.887L355.247 277.734L355.249 277.73H354.146L354.141 277.734L353.508 278.887L350.903 283.636L350.353 284.642L345.452 293.569L344.899 294.576L340.001 303.501L339.448 304.507L334.548 313.435L333.995 314.443L329.097 323.367L328.544 324.375L323.643 333.301L323.093 334.309L318.192 343.235L317.641 344.241L312.741 353.169L312.188 354.175L307.29 363.101L306.737 364.109L304.122 368.872L299.634 377.05V379.065Z" fill="#90B9F7"/>
<path d="M308.61 382.575H307.504L365.046 277.732H366.152L308.61 382.575Z" fill="#90B9F7"/>
<path d="M319.512 382.577H318.407L375.948 277.734H377.054L319.512 382.577Z" fill="#90B9F7"/>
<path d="M330.415 382.58H329.309L386.851 277.736H387.956L330.415 382.58Z" fill="#90B9F7"/>
<path d="M341.317 382.584H340.211L397.753 277.738L398.859 277.74L341.317 382.584Z" fill="#90B9F7"/>
<path d="M352.219 382.586H351.114L408.655 277.742H409.761L352.219 382.586Z" fill="#90B9F7"/>
<path d="M363.122 382.588H362.016L419.558 277.744H420.663L363.122 382.588Z" fill="#90B9F7"/>
<path d="M374.024 382.59H372.919L430.461 277.746H431.564L374.024 382.59Z" fill="#90B9F7"/>
<path d="M384.927 382.592H383.821L441.361 277.749H442.468L384.927 382.592Z" fill="#90B9F7"/>
<path d="M395.827 382.596L394.723 382.594L452.265 277.75L453.368 277.753L395.827 382.596Z" fill="#90B9F7"/>
<path d="M406.729 382.598H405.624L463.165 277.755H464.271L406.729 382.598Z" fill="#90B9F7"/>
<path d="M417.631 382.6H416.526L474.068 277.757H475.173L417.631 382.6Z" fill="#90B9F7"/>
<path d="M428.534 382.602H427.428L484.97 277.759H486.075L428.534 382.602Z" fill="#90B9F7"/>
<path d="M439.436 382.604H438.331L495.873 277.761H496.978L439.436 382.604Z" fill="#90B9F7"/>
<path d="M450.528 382.561H449.423L506.964 277.717H508.07L450.528 382.561Z" fill="#90B9F7"/>
<path d="M461.431 382.563H460.325L517.865 277.719H518.97L461.431 382.563Z" fill="#90B9F7"/>
<path d="M472.331 382.567L471.228 382.565L528.767 277.722H529.873L472.331 382.567Z" fill="#90B9F7"/>
<path d="M483.233 382.569L482.128 382.567L539.67 277.724L540.775 277.726L483.233 382.569Z" fill="#90B9F7"/>
<path d="M494.136 382.571H493.03L550.572 277.728H551.677L494.136 382.571Z" fill="#90B9F7"/>
<path d="M505.038 382.573H503.933L561.474 277.73H562.58L505.038 382.573Z" fill="#90B9F7"/>
<path d="M515.94 382.575H514.835L572.377 277.732H573.482L515.94 382.575Z" fill="#90B9F7"/>
<path d="M526.843 382.577H525.738L583.279 277.734H584.385L526.843 382.577Z" fill="#90B9F7"/>
<path d="M593.755 280.528L591.496 284.641L590.943 285.65L586.045 294.573L585.494 295.581L580.594 304.507L580.041 305.515L575.143 314.433L574.59 315.441L569.691 324.369L569.139 325.375L564.238 334.305L563.685 335.311L558.787 344.241L558.234 345.249L553.336 354.177L552.783 355.185L547.883 364.113L547.33 365.121L542.438 374.049L541.885 375.057L538.02 382.095L537.752 382.584H536.646L536.914 382.097L541.332 374.047L541.885 373.039L546.769 364.113L547.322 363.107L552.22 354.179L552.775 353.173L557.673 344.247L558.226 343.241L563.124 334.313L563.677 333.307L568.576 324.381L569.128 323.375L574.029 314.449L574.582 313.443L579.48 304.518L580.033 303.512L584.931 294.584L585.484 293.578L590.382 284.654L590.935 283.648L593.245 279.438C593.418 279.796 593.588 280.162 593.755 280.528Z" fill="#90B9F7"/>
<path d="M599.096 290.663L596.949 294.575L596.397 295.584L591.498 304.509L590.945 305.515L586.047 314.443L585.494 315.449L580.594 324.369L580.041 325.377L575.142 334.305L574.59 335.311L569.691 344.241L569.138 345.247L564.238 354.177L563.685 355.185L558.787 364.113L558.234 365.121L553.336 374.049L552.783 375.055L548.916 382.093L548.648 382.579H547.542L547.81 382.091L552.23 374.041L552.783 373.035L557.681 364.107L558.234 363.101L563.132 354.173L563.685 353.167L568.586 344.241L569.138 343.233L574.037 334.307L574.59 333.299L579.488 324.373L580.041 323.367L584.941 314.441L585.494 313.433L590.393 304.505L590.945 303.499L595.844 294.573L596.397 293.567L598.527 289.682L599.096 290.663Z" fill="#90B9F7"/>
<path d="M604.861 300.026L602.401 304.509L601.848 305.518L596.949 314.433L596.397 315.441L591.498 324.369L590.945 325.377L586.047 334.305L585.494 335.311L580.594 344.241L580.041 345.247L575.143 354.177L574.59 355.185L569.691 364.113L569.139 365.121L564.238 374.049L563.685 375.057L559.816 382.106L559.55 382.592H558.445L558.713 382.106L563.133 374.049L563.685 373.041L568.586 364.115L569.139 363.109L574.037 354.181L574.59 353.175L579.488 344.249L580.041 343.241L584.942 334.315L585.494 333.309L590.393 324.384L590.945 323.378L595.844 314.45L596.397 313.444L601.295 304.518L601.848 303.512L604.269 299.099L604.861 300.026Z" fill="#90B9F7"/>
<path d="M610.634 309.376L607.852 314.443L607.299 315.449L602.401 324.369L601.848 325.375L596.949 334.305L596.397 335.311L591.498 344.241L590.945 345.247L586.047 354.177L585.494 355.183L580.594 364.113L580.041 365.121L575.143 374.049L574.59 375.055L570.719 382.11L570.452 382.594H569.347L569.613 382.108L574.037 374.049L574.59 373.041L579.488 364.115L580.041 363.109L584.942 354.183L585.494 353.177L590.393 344.251L590.945 343.243L595.844 334.317L596.397 333.309L601.295 324.384L601.848 323.378L606.746 314.454L607.299 313.446L610.059 308.418L610.292 308.805L610.634 309.376Z" fill="#90B9F7"/>
<path d="M615.943 319.565L613.303 324.375L612.75 325.381L607.852 334.305L607.299 335.311L602.401 344.241L601.848 345.247L596.95 354.177L596.397 355.183L591.496 364.113L590.944 365.121L586.045 374.049L585.492 375.055L581.619 382.114L581.353 382.598H580.25L580.516 382.114L584.94 374.041L585.492 373.035L590.393 364.109L590.946 363.101L595.844 354.175L596.397 353.169L601.295 344.241L601.848 343.235L606.746 334.305L607.299 333.299L612.198 324.373L612.75 323.367L615.444 318.461C615.615 318.828 615.78 319.194 615.943 319.565Z" fill="#90B9F7"/>
<path d="M619.988 332.051L618.75 334.307L618.197 335.315L613.303 344.241L612.75 345.247L607.852 354.177L607.299 355.185L602.401 364.113L601.848 365.121L596.949 374.049L596.397 375.055L592.521 382.116L592.255 382.598H591.15L591.416 382.114L595.844 374.041L596.397 373.035L601.295 364.109L601.848 363.103L606.746 354.177L607.299 353.171L612.197 344.245L612.75 343.239L617.649 334.313L618.201 333.307L619.682 330.616C619.792 331.082 619.897 331.564 619.988 332.051Z" fill="#90B9F7"/>
<path d="M618.203 353.167L620.711 348.594C620.622 349.458 620.511 350.332 620.379 351.217L618.75 354.177L618.197 355.183L613.305 364.113L612.752 365.119L607.852 374.049L607.299 375.057L603.424 382.122L603.157 382.606H602.044L602.308 382.124L606.738 374.051L607.291 373.043L612.189 364.117L612.742 363.111L617.642 354.185L618.203 353.167Z" fill="#90B9F7"/>
<path d="M317.994 382.604H316.889L312.741 375.049L312.188 374.043L307.29 365.115L306.737 364.109L304.122 359.344L301.839 355.183L301.284 354.175L299.634 351.167V349.153L301.839 353.169L302.389 354.175L304.122 357.33L307.29 363.101L307.843 364.109L312.741 373.035L313.296 374.043L317.994 382.604Z" fill="#90B9F7"/>
<path d="M328.895 382.602H327.789L323.643 375.049L323.091 374.043L318.192 365.117L317.641 364.109L312.741 355.183L312.188 354.175L307.29 345.251L306.737 344.241L304.122 339.478L301.839 335.315L301.284 334.307L299.634 331.299V329.285L301.839 333.301L302.389 334.307L304.122 337.462L307.29 343.235L307.843 344.241L312.741 353.169L313.294 354.175L318.192 363.103L318.747 364.109L323.643 373.035L324.196 374.043L328.895 382.602Z" fill="#90B9F7"/>
<path d="M339.799 382.6H338.693L334.548 375.049L333.995 374.041L329.097 365.115L328.544 364.109L323.643 355.183L323.093 354.175L318.192 345.249L317.641 344.241L312.741 335.315L312.188 334.307L307.29 325.381L306.737 324.375L304.122 319.61L301.839 315.449L301.284 314.443L299.634 311.434V309.419L301.839 313.435L302.389 314.443L304.122 317.596L307.29 323.367L307.843 324.375L312.741 333.301L313.296 334.309L318.192 343.235L318.747 344.241L323.643 353.169L324.198 354.175L329.097 363.101L329.649 364.109L334.548 373.035L335.101 374.041L339.799 382.6Z" fill="#90B9F7"/>
<path d="M299.634 291.566L301.284 294.573L301.839 295.582L304.122 299.742L306.737 304.507L307.29 305.518L312.188 314.441L312.741 315.449L317.639 324.375L318.192 325.381L323.093 334.309L323.643 335.315L328.544 344.241L329.097 345.251L333.995 354.175L334.548 355.183L339.448 364.107V364.109L339.999 365.115L344.9 374.043L345.452 375.049L349.594 382.598H350.699L346.005 374.043L345.452 373.035L340.552 364.109L339.999 363.101L335.101 354.175L334.548 353.169L329.649 344.243L329.097 343.237L324.196 334.309V334.307L323.643 333.301L318.745 324.377V324.375L318.192 323.367L313.294 314.443L312.741 313.435L307.843 304.509L307.29 303.501L304.122 297.73L302.389 294.576L301.839 293.569L299.634 289.554V291.566Z" fill="#90B9F7"/>
<path d="M304.06 277.75L302.955 277.753L360.496 382.596L361.602 382.594L304.06 277.75Z" fill="#90B9F7"/>
<path d="M314.962 277.749H313.857L371.399 382.592H372.504L314.962 277.749Z" fill="#90B9F7"/>
<path d="M325.865 277.746H324.759L382.301 382.59H383.406L325.865 277.746Z" fill="#90B9F7"/>
<path d="M336.767 277.744H335.662L393.203 382.588H394.309L336.767 277.744Z" fill="#90B9F7"/>
<path d="M347.669 277.742H346.564L404.106 382.586H405.211L347.669 277.742Z" fill="#90B9F7"/>
<path d="M358.572 277.738L357.466 277.74L415.008 382.584H416.114L358.572 277.738Z" fill="#90B9F7"/>
<path d="M369.474 277.736H368.369L425.91 382.58H427.016L369.474 277.736Z" fill="#90B9F7"/>
<path d="M380.376 277.734H379.271L436.813 382.577H437.918L380.376 277.734Z" fill="#90B9F7"/>
<path d="M391.277 277.732H390.171L447.713 382.575H448.819L391.277 277.732Z" fill="#90B9F7"/>
<path d="M402.179 277.73H401.074L458.615 382.573H459.721L402.179 277.73Z" fill="#90B9F7"/>
<path d="M413.082 277.728H411.976L469.518 382.571H470.623L413.082 277.728Z" fill="#90B9F7"/>
<path d="M423.984 277.724L422.878 277.726L480.42 382.569L481.526 382.567L423.984 277.724Z" fill="#90B9F7"/>
<path d="M434.886 277.722H433.781L491.322 382.567L492.428 382.565L434.886 277.722Z" fill="#90B9F7"/>
<path d="M445.789 277.719H444.683L502.225 382.563H503.33L445.789 277.719Z" fill="#90B9F7"/>
<path d="M456.691 277.717H455.586L513.127 382.561H514.233L456.691 277.717Z" fill="#90B9F7"/>
<path d="M467.781 277.761H466.678L524.217 382.604H525.323L467.781 277.761Z" fill="#90B9F7"/>
<path d="M478.684 277.759H477.578L535.12 382.602H536.225L478.684 277.759Z" fill="#90B9F7"/>
<path d="M489.586 277.757H488.48L546.022 382.6H547.128L489.586 277.757Z" fill="#90B9F7"/>
<path d="M500.488 277.755H499.383L556.925 382.598H558.03L500.488 277.755Z" fill="#90B9F7"/>
<path d="M511.391 277.75L510.285 277.753L567.827 382.596L568.932 382.594L511.391 277.75Z" fill="#90B9F7"/>
<path d="M522.293 277.749H521.188L578.729 382.592H579.835L522.293 277.749Z" fill="#90B9F7"/>
<path d="M533.196 277.746H532.09L589.632 382.59H590.737L533.196 277.746Z" fill="#90B9F7"/>
<path d="M544.098 277.744H542.992L600.534 382.588H601.639L544.098 277.744Z" fill="#90B9F7"/>
<path d="M610.778 379.371C610.603 379.717 610.426 380.066 610.246 380.406L607.299 375.038L606.746 374.03L601.848 365.105L601.295 364.096L596.397 355.171L595.844 354.165L590.945 345.239L590.393 344.233L585.494 335.307L584.942 334.301L580.041 325.375L579.488 324.367L574.59 315.441L574.037 314.433L569.137 305.507L568.584 304.499L563.681 295.582L563.129 294.576L558.23 285.648L557.677 284.642L554.52 278.887L553.901 277.742H555.006L555.635 278.887L558.24 283.634L558.793 284.642L563.681 293.567L564.234 294.576L569.132 303.501L569.685 304.507L574.586 313.433L575.138 314.439L580.037 323.367L580.594 324.369L585.494 333.295L586.047 334.301L590.945 343.227L591.498 344.235L596.397 353.161L596.949 354.165L601.848 363.09L602.401 364.096L607.299 373.022L607.852 374.03L610.778 379.371Z" fill="#90B9F7"/>
<path d="M613.305 364.113L615.673 368.427C615.522 368.816 615.37 369.207 615.211 369.601L612.752 365.119L612.197 364.111L607.299 355.185L606.746 354.177L601.848 345.251L601.295 344.245L596.397 335.319L595.844 334.313L590.945 325.387L590.393 324.379L585.494 315.454L584.942 314.448L580.041 305.52L579.488 304.512L574.59 295.586L574.037 294.58L569.137 285.66L568.584 284.654L565.426 278.899L564.797 277.753H565.903L566.532 278.899L569.137 283.646L569.689 284.652L574.59 293.578L575.143 294.584L580.041 303.51L580.594 304.516L585.494 313.444L586.047 314.452L590.945 323.378L591.498 324.384L596.397 333.309L596.949 334.317L601.848 343.243L602.401 344.249L607.299 353.175L607.852 354.181L612.75 363.107L613.305 364.113Z" fill="#90B9F7"/>
<path d="M618.75 354.177L619.563 355.657C619.459 356.127 619.356 356.597 619.237 357.075L618.205 355.181L617.653 354.173L612.752 345.247L612.199 344.241L607.301 335.315L606.748 334.309L601.85 325.383L601.297 324.377L596.399 315.451L595.846 314.443L590.947 305.517L590.395 304.509L585.496 295.584L584.941 294.575L580.043 285.65L579.49 284.641L576.333 278.889L575.701 277.738H576.807L577.438 278.889L580.043 283.635L580.596 284.641L585.494 293.567L586.047 294.573L590.947 303.501L591.5 304.509L596.399 313.435L596.951 314.441L601.85 323.367L602.403 324.373L607.301 333.299L607.854 334.305L612.752 343.231L613.305 344.239L618.205 353.165L618.75 354.177Z" fill="#90B9F7"/>
<path d="M620.856 338.137C620.918 338.884 620.965 339.637 620.994 340.401L618.201 335.315L617.649 334.307L612.75 325.381L612.197 324.375L607.299 315.449L606.746 314.443L601.848 305.518L601.295 304.509L596.397 295.584L595.844 294.576L590.943 285.66L590.391 284.652L587.233 278.897L586.6 277.744H587.705L588.339 278.897L590.943 283.646L591.496 284.652L596.397 293.58L596.949 294.586L601.848 303.514L602.401 304.52L607.299 313.446L607.852 314.454L612.75 323.378L613.303 324.384L618.201 333.309L618.75 334.305L620.856 338.137Z" fill="#90B9F7"/>
<path d="M304.122 277.717H299.634V382.312H304.122V277.717Z" fill="#90B9F7"/>
<path d="M631.098 381.089H17.6283C17.2433 381.089 16.9312 381.402 16.9312 381.789V382.027C16.9312 382.413 17.2433 382.726 17.6283 382.726H631.098C631.483 382.726 631.795 382.413 631.795 382.027V381.789C631.795 381.402 631.483 381.089 631.098 381.089Z" fill="#2E3552"/>
<path d="M180.759 381.089H171.93L173.951 113.109H178.34L180.759 381.089Z" fill="#91B5F8"/>
<path d="M230.992 76.1967H121.698V150.019H230.992V76.1967Z" fill="#E4163A"/>
<path d="M226.902 145.633H125.839V79.3783H226.902V145.633ZM126.8 144.67H225.941V80.3429H126.8V144.67Z" fill="white"/>
<path d="M195.428 122.505H157.272V98.118H195.428V122.505ZM158.22 121.54H194.469V99.0723H158.22V121.54Z" fill="white"/>
<path d="M160.882 125.922L159.933 126.076L165.214 158.801L166.163 158.646L160.882 125.922Z" fill="white"/>
<path d="M192.814 125.929L188.492 158.655L189.445 158.782L193.767 126.056L192.814 125.929Z" fill="white"/>
<path d="M166.173 125.331L165.219 125.434L168.702 158.2L169.656 158.098L166.173 125.331Z" fill="white"/>
<path d="M176.826 124.914H175.865V158.163H176.826V124.914Z" fill="white"/>
<path d="M171.45 124.89L170.49 124.932L171.931 158.18L172.891 158.138L171.45 124.89Z" fill="white"/>
<path d="M182.724 125.347L179.845 158.114L180.802 158.199L183.682 125.432L182.724 125.347Z" fill="white"/>
<path d="M188.509 125.34L184.065 158.106L185.016 158.236L189.459 125.47L188.509 125.34Z" fill="white"/>
<path d="M189.777 150.853H164.709V151.818H189.777V150.853Z" fill="white"/>
<path d="M189.777 154.989H164.709V155.954H189.777V154.989Z" fill="white"/>
<path d="M190.544 146.341H163.738V147.305H190.544V146.341Z" fill="white"/>
<path d="M191.315 140.51H162.771V141.474H191.315V140.51Z" fill="white"/>
<path d="M192.085 134.678H161.764V135.643H192.085V134.678Z" fill="white"/>
<path d="M192.854 128.849H160.877V129.814H192.854V128.849Z" fill="white"/>
<path d="M193.875 125.999H158.812C158.526 125.998 158.251 125.884 158.049 125.681C157.846 125.477 157.732 125.202 157.732 124.914C157.732 124.627 157.846 124.351 158.049 124.148C158.251 123.944 158.526 123.83 158.812 123.829H193.875C194.161 123.83 194.436 123.944 194.639 124.148C194.841 124.351 194.955 124.627 194.956 124.914C194.955 125.202 194.841 125.477 194.639 125.681C194.436 125.884 194.161 125.998 193.875 125.999Z" fill="#2B478B"/>
<path d="M190.575 381.087H162.113C162.113 380.66 162.196 380.238 162.359 379.844C162.522 379.449 162.76 379.091 163.061 378.79C163.362 378.488 163.719 378.249 164.112 378.086C164.505 377.923 164.926 377.839 165.351 377.839H187.343C188.201 377.84 189.023 378.183 189.629 378.792C190.235 379.401 190.575 380.226 190.575 381.087Z" fill="#91B5F8"/>
<path d="M381.795 278.928C381.8 282.522 381.056 286.077 379.611 289.366C378.167 292.654 376.054 295.603 373.407 298.024C373.298 298.126 373.189 298.231 373.077 298.32C368.934 302.002 363.715 304.241 358.2 304.702C357.913 304.727 357.624 304.745 357.334 304.758C356.901 304.78 356.465 304.792 356.027 304.793C351.877 304.795 347.789 303.79 344.111 301.865C340.432 299.939 337.271 297.149 334.898 293.733C334.735 293.503 334.579 293.269 334.426 293.033C332.068 289.391 330.659 285.212 330.33 280.881C330.001 276.549 330.762 272.204 332.543 268.245C332.663 267.98 332.788 267.717 332.916 267.461C334.816 263.612 337.638 260.297 341.129 257.812C341.259 257.719 341.387 257.628 341.521 257.537C346.64 254.046 352.838 252.515 358.986 253.225C359.259 253.254 359.529 253.291 359.799 253.331C365.673 254.201 371.065 257.085 375.061 261.493C375.268 261.729 375.486 261.967 375.68 262.209C378.081 265.048 379.841 268.376 380.836 271.963C380.911 272.226 380.981 272.491 381.043 272.758C381.539 274.777 381.792 276.849 381.795 278.928Z" fill="#F8914C"/>
<path d="M352.069 274.275C351.863 274.097 351.677 273.919 351.475 273.749C346.746 269.666 340.714 267.423 334.476 267.429C333.95 267.429 333.43 267.444 332.914 267.477C332.786 267.734 332.661 267.997 332.541 268.262C333.179 268.213 333.824 268.189 334.476 268.189C340.496 268.183 346.321 270.335 350.901 274.256C351.108 274.428 351.3 274.6 351.495 274.778C355.572 278.469 358.344 283.388 359.397 288.795C360.449 294.203 359.725 299.807 357.332 304.766C357.624 304.754 357.913 304.735 358.199 304.71C360.54 299.643 361.209 293.958 360.106 288.484C359.004 283.009 356.188 278.031 352.069 274.275Z" fill="#0B0755"/>
<path d="M380.853 271.971C375.408 271.216 370.355 268.706 366.457 264.817C366.25 264.61 366.044 264.403 365.857 264.196C362.974 261.134 360.892 257.402 359.799 253.335C359.529 253.295 359.259 253.258 358.986 253.229C360.068 257.449 362.179 261.332 365.13 264.527C365.322 264.734 365.518 264.941 365.718 265.148C369.833 269.348 375.238 272.032 381.061 272.766C380.997 272.499 380.927 272.234 380.853 271.971Z" fill="#0B0755"/>
<path d="M372.694 298.386C371.405 291.023 368.94 284.329 365.364 278.49C362.518 273.834 358.931 269.678 354.746 266.188C347.61 260.236 341.078 258.204 341.012 258.183L341.233 257.456C341.299 257.475 347.952 259.541 355.204 265.581C359.459 269.124 363.105 273.344 365.999 278.071C369.631 283.998 372.135 290.789 373.441 298.256L372.694 298.386Z" fill="#0B0755"/>
<path d="M375.697 262.217C373.112 262.515 370.008 263.267 366.457 264.817C366.213 264.923 365.966 265.024 365.718 265.148C363.352 266.248 361.076 267.534 358.912 268.994C358.706 269.135 358.487 269.28 358.273 269.429C356.115 270.925 354.044 272.543 352.069 274.275C351.879 274.438 351.687 274.608 351.495 274.778C350.258 275.882 348.993 277.074 347.7 278.353C342.974 283.083 338.688 288.237 334.896 293.75C334.733 293.52 334.576 293.286 334.424 293.05C338.202 287.595 342.457 282.49 347.139 277.794C348.393 276.552 349.648 275.369 350.903 274.246C351.095 274.074 351.287 273.904 351.477 273.739C353.462 271.998 355.542 270.368 357.707 268.858C357.914 268.707 358.132 268.564 358.345 268.419C359.199 267.842 360.049 267.3 360.896 266.792C362.269 265.967 363.682 265.212 365.13 264.529C365.374 264.416 365.613 264.306 365.856 264.198C368.783 262.863 371.886 261.957 375.07 261.507C375.284 261.737 375.495 261.975 375.697 262.217Z" fill="#0B0755"/>
<path d="M270.188 210.867C270.188 210.867 278.885 214.963 282.909 224.465C286.933 233.966 291.365 243.941 294.352 247.266C297.338 250.59 314.795 258.665 314.795 258.665V262.942C314.795 262.942 288.115 256.765 283.858 253.917C279.601 251.068 270.19 234.202 270.19 234.202L270.188 210.867Z" fill="#F7A491"/>
<path d="M271.425 271.143C271.425 271.143 265.087 324.05 264.413 328.851C262.763 340.844 262.748 372.569 262.748 372.569C262.748 372.569 261.492 375.177 255.117 373.83C255.117 373.83 248.929 356.235 248.472 335.858C248.391 332.374 249.476 328.553 249.379 325.524C248.703 304.801 242.973 269.377 242.973 269.377L271.425 271.143Z" fill="#F7A491"/>
<path d="M271.425 271.145L267.898 321.798C267.898 321.798 254.251 323.729 247.067 321.798L247.222 318.519L248.069 300.806L248.482 292.081L261.418 268.171L271.425 271.145Z" fill="#E4163A"/>
<path d="M258.646 288.33L247.217 318.515L248.065 300.802L258.646 288.33Z" fill="#C70B2C"/>
<path d="M225.353 381.087H216.769C215.688 380.499 214.725 379.15 214.422 377.14C214.009 374.366 210.903 372.853 210.233 370.582C209.562 368.311 212.999 365.121 212.999 365.121L213.572 364.378L214.17 363.606L219.865 364.951C219.865 364.951 220.007 366.314 220.091 368.056C220.166 369.377 220.174 370.7 220.116 372.02C219.949 375.047 220.96 378.307 223.639 378.895C225.623 379.323 225.534 380.503 225.353 381.087Z" fill="#233862"/>
<path d="M275.156 381.087H255.531C254.587 379.93 254.935 375.666 255.078 374.273C255.107 373.991 255.127 373.827 255.127 373.827C255.127 373.827 261.828 368.446 262.758 372.567C262.785 372.697 262.82 372.824 262.857 372.948C264.017 376.8 269.218 378.551 272.223 379.04C274.168 379.361 274.89 380.379 275.156 381.087Z" fill="#233862"/>
<path d="M265.856 270.897C265.856 270.897 252.592 295.48 239.894 323.032C229.503 345.572 219.875 364.953 219.875 364.953C219.875 364.953 214.807 365.5 214.18 363.608C214.18 363.608 217.621 321.699 225.697 311.491C230.26 305.724 235.622 288.417 235.872 282.365C236.121 276.312 239.456 264.339 239.456 264.339L265.856 270.897Z" fill="#F7A491"/>
<path d="M240.471 259.853C240.471 259.853 236.018 266.978 233.65 275.53C231.283 284.081 220.96 312.342 220.96 312.342C220.96 312.342 227.026 321.434 242.327 321.798L267.886 269.377L240.471 259.853Z" fill="#E4163A"/>
<path d="M270.188 216.969C250.724 228.422 252.038 208.65 252.038 208.65C252.038 208.65 259.619 205.35 261.682 195.195L266.034 200.848L268.989 204.688C268.555 206.284 268.034 207.854 267.428 209.393L270.188 216.969Z" fill="#F7A491"/>
<path d="M268.993 204.698C268.559 206.294 268.038 207.865 267.432 209.403C263.542 207.731 260.508 200.045 260.508 200.045C262.717 199.941 264.551 200.268 266.038 200.858L268.993 204.698Z" fill="#FA8B72"/>
<path d="M273.042 204.388C273.042 204.388 261.218 206.458 260.048 199.039C258.879 191.62 256.575 186.902 264.078 185.265C271.582 183.628 273.494 186.232 274.482 188.61C275.47 190.989 276.088 203.661 273.042 204.388Z" fill="#F7A491"/>
<path d="M260.038 198.325C260.038 198.325 261.251 198.118 261.042 196.433C260.834 194.748 260.822 192.56 262.185 192.959C263.548 193.359 263.629 194.452 264.179 193.808C264.73 193.164 264.724 190.477 268.77 190.26C272.817 190.043 274.473 191.446 276.35 190.601C278.227 189.757 278.305 186.896 278.305 186.896C278.305 186.896 277.777 187.931 276.971 188.252C276.971 188.252 280.079 183.917 276.422 180.988C272.766 178.059 269.072 180.02 266.968 180.16C262.333 180.477 259.337 180.781 257.848 183.847C256.358 186.913 257.041 195.408 260.038 198.325Z" fill="#2B478B"/>
<path d="M249.936 208.178C249.936 208.178 250.876 221.993 241.354 227.969C241.354 227.969 234.255 249.083 231.248 272.006C231.248 272.006 250.986 280.992 271.409 275.134C271.409 275.134 273.677 250.273 277.474 236.34C281.271 222.407 270.173 210.867 270.173 210.867L267.727 210.246C267.727 210.246 271.264 219.78 261.539 219.78C254.795 219.78 252.702 208.312 252.702 208.312L249.936 208.178Z" fill="#F9DDBF"/>
<path d="M250.109 208.186C250.109 208.186 240.069 207.673 235.098 212.388C230.128 217.104 213.236 236.814 213.162 241.327C213.087 245.839 238.175 251.954 241.253 252.341L242.983 247.74C242.983 247.74 225.553 238.715 227.446 237.597C229.34 236.479 242.35 226.98 243.697 226.348C250.109 223.353 250.109 208.186 250.109 208.186Z" fill="#F7A491"/>
<path d="M314.789 258.665C314.789 258.665 317.435 256.879 318.935 256.802C320.434 256.726 323.021 256.446 322.93 257.158C322.839 257.87 319.347 257.744 320.176 258.667C321.005 259.59 325.126 260.127 325.875 261.077C326.624 262.027 321.418 263.333 319.467 263.273C317.516 263.213 314.789 262.944 314.789 262.944V258.665Z" fill="#F7A491"/>
<path d="M242.983 247.74L250.109 246.665C251.173 246.508 257.549 247.377 257.2 248.17C256.851 248.963 250.542 249.437 249.362 250.625C248.183 251.813 252.99 252.921 252.359 253.474C251.728 254.026 247.154 253.712 245.891 253.474C244.629 253.236 241.257 252.341 241.257 252.341L242.983 247.74Z" fill="#F7A491"/>
<path d="M252.71 208.304C252.71 208.304 244.39 206.894 236.579 210.867C228.768 214.839 222.538 222.678 222.538 222.678C222.538 222.678 226.955 234.949 240.444 236.533L250.699 224.734L252.71 208.304Z" fill="#F9DDBF"/>
<path d="M270.187 210.867C270.187 210.867 278.947 215.007 282.377 221.291C285.807 227.576 288.649 234.829 288.649 234.829C288.649 234.829 282.377 244.448 273.739 244.804C265.101 245.16 270.187 210.867 270.187 210.867Z" fill="#F9DDBF"/>
<path d="M432.712 185.679L427.331 192.62L416.672 194.183C416.534 193.323 416.054 189.732 415.614 186.476C415.59 186.285 415.565 186.093 415.54 185.905C415.173 183.135 414.859 180.754 414.859 180.754L422.812 173.404L425.774 170.663C425.774 170.719 426.484 173.634 426.589 174.058C428.427 181.603 432.712 185.679 432.712 185.679Z" fill="#F7A491"/>
<path d="M425.931 174.429C425.065 178.629 418.434 184.278 415.618 186.482C415.594 186.292 415.569 186.099 415.544 185.911C415.177 183.141 414.864 180.761 414.864 180.761L422.813 173.404C424.875 172.667 426.288 172.7 425.931 174.429Z" fill="#FA8B72"/>
<path d="M410.174 180.862C410.174 180.862 426.737 182.932 427.859 172.555C428.981 162.178 431.875 155.465 421.348 153.708C410.821 151.95 408.334 155.685 407.117 159.055C405.9 162.425 405.9 180.059 410.174 180.862Z" fill="#F7A491"/>
<path d="M407.564 157.995C407.564 157.995 410.627 169.272 412.9 168.345C415.173 167.417 417.246 166.662 417.522 170.179C417.798 173.696 415.253 178.277 422.629 177.569C430.004 176.861 437.085 156.128 434.443 152.925C426.822 143.685 396.967 146.955 407.564 157.995Z" fill="#163560"/>
<path d="M491.919 241.72C491.662 242.018 491.492 242.381 491.426 242.77C491.11 243.391 490.042 245.103 489.712 245.374C488.668 246.233 489.572 246.721 490.626 246.171C490.854 246.051 491.286 245.566 491.508 245.409C491.849 246.976 492.711 249.135 494.583 252.033C494.583 252.033 495.936 254.339 496.706 251.619C497.221 249.793 496.634 248.99 497.325 246.405C498.015 243.819 497.446 241.134 495.881 239.946L494.771 238.015L491.096 238.977L491.919 241.72Z" fill="#F7A491"/>
<path d="M427.335 194.891C427.335 194.891 432.958 168.316 477.042 201.233C484.093 206.497 495.864 239.942 495.864 239.942C495.864 239.942 494.262 243.142 491.914 241.724C491.914 241.724 471.675 216.948 471.166 214.241C470.716 211.84 444.108 208.383 438.007 205.392C431.906 202.4 427.335 194.891 427.335 194.891Z" fill="#F7A491"/>
<path d="M433.601 254.883C433.601 254.883 399.201 290.471 397.425 301.158C395.649 311.845 418.302 373.333 418.302 373.333L423.906 366.597C423.906 366.597 426.599 333.595 422.02 309.465C421.16 304.936 462.091 287.21 464.372 279.193C466.653 271.176 446.944 251.942 433.601 254.883Z" fill="#F7A491"/>
<path d="M456.386 251.712C456.386 251.712 447.884 306.316 449.406 313.951C450.928 321.585 479.43 374.012 479.43 374.012L483.495 366.593C483.495 366.593 481.357 329.488 472.579 317.165C466.162 308.161 491.715 266.98 475.74 251.712C459.766 236.444 456.386 251.712 456.386 251.712Z" fill="#F7A491"/>
<path d="M423.889 381.046H419.636C418.211 380.822 417.161 380.408 415.699 380.218C413.479 379.926 412.458 380.839 412.256 381.046C412.242 381.059 412.229 381.074 412.217 381.089H394.143C393.69 380.439 394.125 378.93 394.556 377.818C394.699 377.446 394.926 377.113 395.22 376.844C395.513 376.575 395.865 376.378 396.247 376.268C398.163 375.711 401.94 375.214 405.398 372.072C407.343 370.308 414.795 365.585 414.795 365.585H414.834C414.997 365.585 415.777 365.829 419.166 368.69C420.917 370.172 423.909 366.597 423.909 366.597C424.32 366.973 424.652 367.426 424.889 367.93C425.311 368.792 425.447 369.767 425.277 370.712C425.009 372.347 425.877 375.382 426.572 377.435C426.985 378.677 427.348 379.561 427.348 379.561C427.348 379.561 427.556 380.586 423.889 381.046Z" fill="#E4163A"/>
<path d="M424.885 367.93C423.87 368.648 421.728 370.062 420.306 370.246C418.386 370.501 414.8 365.585 414.8 365.585H414.839C415.002 365.585 415.781 365.829 419.17 368.69C420.921 370.172 423.914 366.597 423.914 366.597C424.321 366.974 424.651 367.426 424.885 367.93Z" fill="#466AA5"/>
<path d="M423.889 381.046H419.636C418.211 380.822 417.161 380.408 415.699 380.218C413.48 379.926 412.459 380.839 412.256 381.046C412.242 381.059 412.229 381.074 412.217 381.089H394.143C393.69 380.439 394.125 378.93 394.556 377.819C395.105 377.33 395.259 379.944 395.562 380.363C395.866 380.781 410.299 380.514 411.132 379.905C411.966 379.297 414.467 378.233 417.953 379.077C420.987 379.804 425.457 377.941 426.564 377.444C426.977 378.686 427.34 379.57 427.34 379.57C427.34 379.57 427.556 380.586 423.889 381.046Z" fill="#466AA5"/>
<path d="M483.477 381.046H479.224C477.801 380.822 476.749 380.408 475.289 380.218C473.069 379.926 472.048 380.839 471.844 381.046L471.805 381.089H453.75C453.294 380.439 453.731 378.93 454.163 377.818C454.306 377.446 454.533 377.113 454.826 376.844C455.12 376.575 455.472 376.378 455.854 376.268C457.77 375.711 461.546 375.214 465.003 372.072C466.95 370.308 474.4 365.585 474.4 365.585H474.439C474.602 365.585 475.381 365.829 478.77 368.69C480.523 370.172 483.514 366.597 483.514 366.597C483.924 366.973 484.257 367.426 484.494 367.93C484.915 368.792 485.051 369.767 484.881 370.712C484.611 372.347 485.481 375.382 486.174 377.435C486.597 378.677 486.95 379.561 486.95 379.561C486.95 379.561 487.136 380.586 483.477 381.046Z" fill="#E4163A"/>
<path d="M484.481 367.93C483.464 368.648 481.321 370.062 479.9 370.246C477.982 370.501 474.394 365.585 474.394 365.585H474.433C474.596 365.585 475.375 365.829 478.764 368.69C480.517 370.172 483.508 366.597 483.508 366.597C483.916 366.973 484.246 367.426 484.481 367.93Z" fill="#466AA5"/>
<path d="M483.477 381.046H479.224C477.801 380.822 476.749 380.408 475.289 380.218C473.069 379.926 472.048 380.839 471.844 381.046L471.805 381.089H453.75C453.294 380.439 453.731 378.93 454.163 377.819C454.711 377.33 454.866 379.944 455.169 380.363C455.472 380.781 469.906 380.514 470.739 379.905C471.572 379.297 474.072 378.233 477.557 379.077C480.591 379.804 485.063 377.941 486.168 377.444C486.591 378.686 486.944 379.57 486.944 379.57C486.944 379.57 487.136 380.586 483.477 381.046Z" fill="#466AA5"/>
<path d="M357.6 252.112C357.6 252.112 357.2 251.722 356.239 251.551C355.429 251.19 353.197 249.94 352.832 249.536C351.677 248.265 351.118 249.45 351.885 250.756C352.05 251.039 352.694 251.555 352.917 251.83C350.957 252.368 348.29 253.606 344.737 256.177C344.737 256.177 341.909 258.052 345.413 258.853C347.756 259.39 348.734 258.588 352.048 259.29C355.363 259.992 358.727 259.098 360.123 257.013L362.495 255.471L361.035 250.851L357.6 252.112Z" fill="#F7A491"/>
<path d="M474.084 306.493L447.579 305.542L447.769 301.876L448.404 289.663L449.229 273.884L477.304 251.712C477.304 251.712 482.18 258.038 483.491 266.589C484.803 275.14 474.084 306.493 474.084 306.493Z" fill="#E4163A"/>
<path d="M463.988 285.372C463.988 285.372 454.068 295.652 447.769 301.876L448.404 289.663L463.988 285.372Z" fill="#C70B2C"/>
<path d="M436.751 250.176C436.751 250.176 411.531 277.009 404.904 285.573C404.904 285.573 414.598 304.352 428.569 307.677C428.569 307.677 468.563 284.801 473.297 277.119C478.03 269.437 477.304 251.712 477.304 251.712L436.751 250.176Z" fill="#E4163A"/>
<path d="M410.541 197.865C410.541 197.865 424.782 181.03 442.767 184.553C449.668 185.907 489.625 231.467 486.785 270.789C486.785 270.789 468.326 285.372 427.336 261.54C427.336 261.54 427.051 256.08 425.985 244.324C424.918 232.569 411.584 229.464 408.041 219.302C404.498 209.14 405.232 200.357 410.541 197.865Z" fill="white"/>
<path d="M415.594 194.661C416.635 194.317 417.766 194.377 418.766 194.828C424.314 197.327 440.962 208.534 404 243.531C397.097 250.068 360.108 257.026 360.108 257.026C360.108 257.026 359.077 253.122 361.012 250.882C361.012 250.882 388.362 234.852 391.33 234.817C393.96 234.788 402.623 207.037 406.937 201.088C409.087 198.094 412.112 195.848 415.594 194.661Z" fill="#F7A491"/>
<path d="M416.419 192.388C416.419 192.388 408.928 194.704 402.617 204.52C396.305 214.336 392.203 229.637 392.203 229.637C392.203 229.637 403.341 237.139 415.598 236.98C415.598 236.98 437.799 217.979 436.852 211.171C435.905 204.363 426.876 187.438 416.419 192.388Z" fill="white"/>
<path d="M435.901 184.137C435.901 184.137 458.741 182.512 473.296 195.574C473.296 195.574 472.939 213.15 460.752 215.406C448.565 217.663 435.901 184.137 435.901 184.137Z" fill="white"/>
<path opacity="0.95" d="M261.587 97.8634C261.587 97.8634 270.326 83.1767 291.223 84.81C291.223 84.81 321.562 60.3281 353.923 81.5456C353.923 81.5456 388.315 76.2878 413.785 86.0996C430.766 92.6387 436.376 99.4987 436.376 99.4987L261.587 97.8634Z" fill="#F8FCFF"/>
<path d="M408.876 58.167C408.876 56.9797 409.227 55.8191 409.884 54.8319C410.541 53.8447 411.475 53.0753 412.568 52.621C413.661 52.1666 414.864 52.0477 416.024 52.2793C417.185 52.511 418.25 53.0827 419.087 53.9222C419.923 54.7618 420.493 55.8314 420.724 56.9959C420.955 58.1603 420.836 59.3673 420.383 60.4642C419.931 61.5611 419.164 62.4987 418.18 63.1583C417.197 63.8179 416.04 64.17 414.857 64.17C413.271 64.17 411.75 63.5375 410.628 62.4118C409.506 61.286 408.876 59.7591 408.876 58.167Z" fill="#F8FBFF"/>
<path opacity="0.95" d="M564.3 108.454L474.837 107.868C474.837 107.868 483.489 97.6751 504.174 98.8053C504.174 98.8053 524.879 87.0974 550.236 91.5499C555.255 96.8983 559.951 102.543 564.3 108.454Z" fill="#F8FCFF"/>
<path opacity="0.95" d="M379.028 122.59C379.028 122.59 383.276 116.394 393.434 117.081C393.434 117.081 408.183 106.754 423.91 115.705C423.91 115.705 440.616 113.488 453.007 117.626C461.257 120.385 463.988 123.279 463.988 123.279L379.028 122.59Z" fill="#F8FCFF"/>
<path d="M563.269 381.087H542.438C541.32 380.137 543.209 377.982 545.185 377.833C546.041 377.767 547.126 377.947 548.365 378.21C548.652 374.386 550.289 357.203 556.46 357.893C563.401 358.667 556.46 365.461 554.499 369.485C553.055 372.463 551.513 376.73 550.813 378.752C551.376 378.876 551.96 378.996 552.554 379.106C553.474 376.272 556.898 366.738 561.25 367.293C566.358 367.943 564.306 371.766 560.684 374.035C558.026 375.703 554.763 378.075 553.212 379.209C554.558 379.444 555.922 379.555 557.287 379.539C560.843 379.466 562.586 380.522 563.269 381.087Z" fill="#A8D29F"/>
<path d="M100.526 381.087H121.357C122.473 380.137 120.584 377.982 118.61 377.833C117.752 377.767 116.667 377.947 115.43 378.21C115.143 374.386 113.505 357.203 107.332 357.893C100.394 358.667 107.332 365.461 109.296 369.485C110.74 372.463 112.28 376.73 112.982 378.752C112.418 378.876 111.835 378.996 111.239 379.106C110.319 376.272 106.907 366.738 102.545 367.293C97.4344 367.943 99.4887 371.766 103.11 374.035C105.767 375.703 109.03 378.075 110.581 379.209C109.235 379.444 107.871 379.555 106.505 379.539C102.943 379.466 101.203 380.522 100.526 381.087Z" fill="#8EC181"/>
<path d="M592.892 176.246C579.818 177.281 575.361 167.908 575.361 167.908C575.361 167.908 572.197 151.371 535.289 163.354C505.779 172.942 488.592 146.239 487.851 135.823C485.902 108.456 506.69 92.1461 500.738 81.2931C494.33 69.6038 494.94 59.1213 497.714 50.9758C517.537 61.9282 535.419 75.7082 550.244 91.5479C555.261 96.8972 559.954 102.542 564.3 108.454C579.356 128.922 589.506 151.957 592.892 176.246Z" fill="#A8D29F"/>
</svg>
